<svg xmlns="http://www.w3.org/2000/svg" width="139" height="20" fill="none"><defs/><g fill-rule="evenodd" clip-rule="evenodd"><path fill="#2D314D" d="M91.2953 15.8461c3.5005 0 5.9731-2.5149 5.9731-6.04799 0-3.53306-2.4726-6.04779-5.9731-6.04779-1.0513.00021-2.0113.28126-2.825.78379V0h-3.8712v15.4737h2.8977l.3693-.844c.9236.7716 2.1025 1.2164 3.4292 1.2164zm-26.6048 0c3.0208.0002 5.0259-1.5545 5.0259-3.9303 0-2.83411-2.3076-3.24285-4.0918-3.5589l-.0918-.01627-.0225-.00401c-1.0695-.19074-1.927-.34364-1.927-.98609 0-.52695.4217-.83769 1.0495-.83769.7095 0 1.1975.33748 1.1975 1.06337h3.6669c-.0446-2.30358-1.9208-3.84358-4.8158-3.84358-2.9128 0-4.8547 1.47116-4.8547 3.7499 0 2.75727 2.3368 3.28927 4.0996 3.57497 1.0922.1806 1.9528.3676 1.9528 1.0233 0 .5876-.5429.8798-1.1158.8798-.7425 0-1.3212-.3827-1.3212-1.2141H59.673c.0358 2.4632 1.919 4.0996 5.0175 4.0996zm-20.9846-4.2152c-.8 2.5946-3.0998 4.2156-5.952 4.2156-3.5472 0-6.175-2.5926-6.175-6.06566 0-3.48526 2.6068-6.048 6.175-6.048 3.6644 0 6.2017 2.61432 6.2014 5.94927 0 .34249-.0299.68509-.0808 1.03659H35.433c.2562 1.304 1.0844 1.9784 2.3209 1.9784.9147 0 1.6789-.4007 2.0553-1.0662h3.8967zm-8.2038-3.08058h4.5958c-.3436-1.13622-1.1626-1.74927-2.3442-1.74927-1.1413 0-1.9348.62-2.2516 1.74927zM51.044 15.8463c1.3204 0 2.4993-.4345 3.4303-1.1886l.3354.804h3.0271V4.09326l-2.9185-.00021-.4006.87916c-.9388-.77453-2.1348-1.22168-3.4737-1.22168-3.4762 0-5.9611 2.50589-5.9611 6.02673 0 3.53304 2.4849 6.06904 5.9611 6.06904zm-2.0213-6.05998c0 1.48458 1.0781 2.59288 2.5449 2.59288 1.4667 0 2.5448-1.1083 2.5448-2.59288 0-1.47558-1.0781-2.58379-2.5448-2.58379-1.4756 0-2.5449 1.10821-2.5449 2.58379zm29.6448 5.18148c-1.5324 3.4794-2.941 4.7362-5.8764 4.7362h-1.3408v-3.3646h1.0768c1.4981 0 1.9499-.3901 2.4804-1.8049L70.3097 4.10526h4.2551l2.4126 6.26254 2.2483-6.26254h4.2067L78.6675 14.9678zm9.5592-5.16969c0 1.47239 1.0781 2.58059 2.5448 2.58059 1.4577 0 2.5449-1.1082 2.5449-2.58059 0-1.48464-1.0781-2.59285-2.5449-2.59285-1.4667 0-2.5448 1.10821-2.5448 2.59285zM104.37 15.8463c1.321 0 2.5-.4345 3.431-1.1886l.335.804h3.027V4.09326l-2.918-.00021-.401.87916c-.939-.77453-2.135-1.22168-3.474-1.22168-3.476 0-5.9608 2.50589-5.9608 6.02673 0 3.53304 2.4848 6.06904 5.9608 6.06904zm-2.021-6.05998c0 1.48458 1.078 2.59288 2.545 2.59288 1.467 0 2.545-1.1083 2.545-2.59288 0-1.47558-1.078-2.58379-2.545-2.58379-1.476 0-2.545 1.10821-2.545 2.58379zm15.197 5.68738V9.40295c0-1.44695.703-2.29979 1.924-2.29979.986 0 1.483.65642 1.483 1.97958v6.39096h3.915V8.54169c0-2.89643-1.734-4.77264-4.374-4.77264-1.47 0-2.732.56527-3.578 1.50842l-.538-1.17221h-2.747V15.4737h3.915zm13.749-4.8076v4.8076h-3.916V0h3.916v8.55895l2.708-4.45369h4.397l-3.543 5.41832 3.902 5.95012h-4.616l-2.848-4.8076z"/><path fill="url(#paint0_linear)" d="M10.8025 0L0 19.704h5.98608L16.7885 0h-5.986z"/><path fill="url(#paint1_linear)" d="M18.1709 0L7.36841 19.704h5.98609L24.157 0h-5.9861z" opacity=".5"/><path fill="url(#paint2_linear)" d="M25.5393 0L14.7368 19.704h5.9861L31.5254 0h-5.9861z" opacity=".15"/></g><defs><linearGradient id="paint0_linear" x1="5.13267" x2="-10.1946" y1="-7.42211" y2="9.91277" gradientUnits="userSpaceOnUse"><stop stop-color="#33D35E"/><stop offset="1" stop-color="#2AB6D9"/></linearGradient><linearGradient id="paint1_linear" x1="12.5011" x2="-2.82619" y1="-7.42211" y2="9.91277" gradientUnits="userSpaceOnUse"><stop stop-color="#33D35E"/><stop offset="1" stop-color="#2AB6D9"/></linearGradient><linearGradient id="paint2_linear" x1="19.8695" x2="4.54222" y1="-7.42211" y2="9.91277" gradientUnits="userSpaceOnUse"><stop stop-color="#33D35E"/><stop offset="1" stop-color="#2AB6D9"/></linearGradient></defs></svg>